Griffith_Gothic-Condensed_Bold.ufo
<glyph name="exclam" format="1">
  <advance width="216"/>
  <unicode hex="0021"/>
  <outline>
    <contour>
      <point x="165" y="720" type="line"/>
      <point x="134" y="201" type="line"/>
      <point x="82" y="201" type="line"/>
      <point x="51" y="720" type="line"/>
    </contour>
    <contour>
      <point x="166" y="51" type="curve" smooth="yes"/>
      <point x="166" y="17"/>
      <point x="141" y="-7"/>
      <point x="108" y="-7" type="curve" smooth="yes"/>
      <point x="75" y="-7"/>
      <point x="50" y="17"/>
      <point x="50" y="51" type="curve" smooth="yes"/>
      <point x="50" y="84"/>
      <point x="75" y="109"/>
      <point x="108" y="109" type="curve" smooth="yes"/>
      <point x="141" y="109"/>
      <point x="166" y="84"/>
    </contour>
  </outline>
</glyph>
<glyph name="numbersign" format="1">
  <advance width="498"/>
  <unicode hex="0023"/>
  <outline>
    <contour>
      <point x="479" y="454" type="line"/>
      <point x="381" y="454" type="line"/>
      <point x="357" y="270" type="line"/>
      <point x="451" y="270" type="line"/>
      <point x="451" y="185" type="line"/>
      <point x="345" y="185" type="line"/>
      <point x="320" y="0" type="line"/>
      <point x="271" y="0" type="line"/>
      <point x="295" y="185" type="line"/>
      <point x="159" y="185" type="line"/>
      <point x="134" y="0" type="line"/>
      <point x="84" y="0" type="line"/>
      <point x="109" y="185" type="line"/>
      <point x="22" y="185" type="line"/>
      <point x="22" y="270" type="line"/>
      <point x="121" y="270" type="line"/>
      <point x="145" y="454" type="line"/>
      <point x="50" y="454" type="line"/>
      <point x="50" y="540" type="line"/>
      <point x="157" y="540" type="line"/>
      <point x="181" y="720" type="line"/>
      <point x="230" y="720" type="line"/>
      <point x="206" y="540" type="line"/>
      <point x="343" y="540" type="line"/>
      <point x="367" y="720" type="line"/>
      <point x="417" y="720" type="line"/>
      <point x="393" y="540" type="line"/>
      <point x="479" y="540" type="line"/>
    </contour>
    <contour>
      <point x="333" y="455" type="line"/>
      <point x="194" y="455" type="line"/>
      <point x="169" y="269" type="line"/>
      <point x="308" y="269" type="line"/>
    </contour>
  </outline>
</glyph>
<glyph name="ampersand" format="1">
  <advance width="554"/>
  <unicode hex="0026"/>
  <outline>
    <contour>
      <point x="551" y="3" type="line"/>
      <point x="533" y="-3"/>
      <point x="519" y="-6"/>
      <point x="498" y="-6" type="curve" smooth="yes"/>
      <point x="448" y="-6"/>
      <point x="412" y="9"/>
      <point x="366" y="66" type="curve"/>
      <point x="320" y="17"/>
      <point x="269" y="-10"/>
      <point x="211" y="-10" type="curve" smooth="yes"/>
      <point x="95" y="-10"/>
      <point x="22" y="68"/>
      <point x="22" y="191" type="curve" smooth="yes"/>
      <point x="22" y="280"/>
      <point x="60" y="347"/>
      <point x="152" y="411" type="curve"/>
      <point x="120" y="472"/>
      <point x="102" y="524"/>
      <point x="102" y="583" type="curve" smooth="yes"/>
      <point x="102" y="668"/>
      <point x="155" y="732"/>
      <point x="244" y="732" type="curve" smooth="yes"/>
      <point x="328" y="732"/>
      <point x="367" y="670"/>
      <point x="367" y="597" type="curve" smooth="yes"/>
      <point x="367" y="512"/>
      <point x="325" y="457"/>
      <point x="251" y="405" type="curve"/>
      <point x="303" y="311"/>
      <point x="341" y="243"/>
      <point x="373" y="195" type="curve"/>
      <point x="402" y="251"/>
      <point x="429" y="323"/>
      <point x="451" y="406" type="curve"/>
      <point x="521" y="371" type="line"/>
      <point x="493" y="273"/>
      <point x="459" y="193"/>
      <point x="420" y="131" type="curve"/>
      <point x="458" y="78"/>
      <point x="479" y="66"/>
      <point x="507" y="66" type="curve" smooth="yes"/>
      <point x="527" y="66"/>
      <point x="535" y="68"/>
      <point x="551" y="74" type="curve"/>
    </contour>
    <contour>
      <point x="293" y="590" type="curve" smooth="yes"/>
      <point x="293" y="639"/>
      <point x="273" y="673"/>
      <point x="242" y="673" type="curve" smooth="yes"/>
      <point x="201" y="673"/>
      <point x="180" y="635"/>
      <point x="180" y="587" type="curve" smooth="yes"/>
      <point x="180" y="545"/>
      <point x="192" y="504"/>
      <point x="217" y="453" type="curve"/>
      <point x="272" y="496"/>
      <point x="293" y="539"/>
    </contour>
    <contour>
      <point x="323" y="120" type="curve"/>
      <point x="286" y="175"/>
      <point x="240" y="250"/>
      <point x="186" y="352" type="curve"/>
      <point x="132" y="308"/>
      <point x="112" y="263"/>
      <point x="112" y="207" type="curve" smooth="yes"/>
      <point x="112" y="130"/>
      <point x="154" y="64"/>
      <point x="226" y="64" type="curve" smooth="yes"/>
      <point x="262" y="64"/>
      <point x="294" y="85"/>
    </contour>
  </outline>
</glyph>
<glyph name="quotesingle" format="1">
  <advance width="169"/>
  <unicode hex="0027"/>
  <outline>
    <contour>
      <point x="132" y="720" type="line"/>
      <point x="108" y="480" type="line"/>
      <point x="61" y="480" type="line"/>
      <point x="36" y="720" type="line"/>
    </contour>
  </outline>
</glyph>
<glyph name="plus" format="1">
  <advance width="474"/>
  <unicode hex="002B"/>
  <outline>
    <contour>
      <point x="442" y="315" type="line"/>
      <point x="279" y="315" type="line"/>
      <point x="279" y="129" type="line"/>
      <point x="195" y="129" type="line"/>
      <point x="195" y="315" type="line"/>
      <point x="31" y="315" type="line"/>
      <point x="31" y="395" type="line"/>
      <point x="195" y="395" type="line"/>
      <point x="195" y="581" type="line"/>
      <point x="279" y="581" type="line"/>
      <point x="279" y="395" type="line"/>
      <point x="442" y="395" type="line"/>
    </contour>
  </outline>
</glyph>
<glyph name="comma" format="1">
  <advance width="180"/>
  <unicode hex="002C"/>
  <outline>
    <contour>
      <point x="150" y="117" type="line"/>
      <point x="69" y="-110" type="line"/>
      <point x="25" y="-110" type="line"/>
      <point x="53" y="117" type="line"/>
    </contour>
  </outline>
</glyph>
<glyph name="two" format="1">
  <advance width="445"/>
  <unicode hex="0032"/>
  <outline>
    <contour>
      <point x="409" y="0" type="line"/>
      <point x="36" y="0" type="line"/>
      <point x="36" y="64" type="line"/>
      <point x="63" y="173"/>
      <point x="107" y="241"/>
      <point x="212" y="342" type="curve" smooth="yes"/>
      <point x="279" y="405"/>
      <point x="307" y="454"/>
      <point x="307" y="533" type="curve" smooth="yes"/>
      <point x="307" y="603"/>
      <point x="280" y="652"/>
      <point x="224" y="652" type="curve" smooth="yes"/>
      <point x="171" y="652"/>
      <point x="140" y="612"/>
      <point x="114" y="517" type="curve"/>
      <point x="31" y="545" type="line"/>
      <point x="64" y="674"/>
      <point x="128" y="732"/>
      <point x="226" y="732" type="curve" smooth="yes"/>
      <point x="346" y="732"/>
      <point x="404" y="648"/>
      <point x="404" y="534" type="curve" smooth="yes"/>
      <point x="404" y="417"/>
      <point x="347" y="353"/>
      <point x="270" y="282" type="curve" smooth="yes"/>
      <point x="194" y="211"/>
      <point x="154" y="150"/>
      <point x="136" y="79" type="curve"/>
      <point x="409" y="79" type="line"/>
    </contour>
  </outline>
</glyph>
<glyph name="three" format="1">
  <advance width="424"/>
  <unicode hex="0033"/>
  <outline>
    <contour>
      <point x="398" y="250" type="curve" smooth="yes"/>
      <point x="398" y="89"/>
      <point x="243" y="-7"/>
      <point x="12" y="-5" type="curve"/>
      <point x="12" y="74" type="line"/>
      <point x="198" y="76"/>
      <point x="297" y="143"/>
      <point x="297" y="250" type="curve" smooth="yes"/>
      <point x="297" y="316"/>
      <point x="267" y="347"/>
      <point x="214" y="347" type="curve" smooth="yes"/>
      <point x="185" y="347"/>
      <point x="161" y="341"/>
      <point x="137" y="332" type="curve"/>
      <point x="114" y="400" type="line"/>
      <point x="221" y="449"/>
      <point x="270" y="496"/>
      <point x="270" y="564" type="curve" smooth="yes"/>
      <point x="270" y="619"/>
      <point x="243" y="654"/>
      <point x="197" y="654" type="curve" smooth="yes"/>
      <point x="153" y="654"/>
      <point x="119" y="625"/>
      <point x="85" y="568" type="curve"/>
      <point x="29" y="616" type="line"/>
      <point x="70" y="685"/>
      <point x="125" y="733"/>
      <point x="211" y="733" type="curve" smooth="yes"/>
      <point x="311" y="733"/>
      <point x="366" y="676"/>
      <point x="366" y="586" type="curve" smooth="yes"/>
      <point x="366" y="499"/>
      <point x="314" y="444"/>
      <point x="241" y="404" type="curve"/>
      <point x="242" y="401" type="line"/>
      <point x="330" y="409"/>
      <point x="398" y="357"/>
    </contour>
  </outline>
</glyph>
<glyph name="four" format="1">
  <advance width="459"/>
  <unicode hex="0034"/>
  <outline>
    <contour>
      <point x="435" y="195" type="line"/>
      <point x="367" y="195" type="line"/>
      <point x="367" y="0" type="line"/>
      <point x="271" y="0" type="line"/>
      <point x="271" y="195" type="line"/>
      <point x="25" y="195" type="line"/>
      <point x="25" y="270" type="line"/>
      <point x="245" y="720" type="line"/>
      <point x="367" y="720" type="line"/>
      <point x="367" y="254" type="line"/>
      <point x="435" y="254" type="line"/>
    </contour>
    <contour>
      <point x="271" y="254" type="line"/>
      <point x="271" y="621" type="line"/>
      <point x="264" y="621" type="line"/>
      <point x="90" y="263" type="line"/>
      <point x="90" y="254" type="line"/>
    </contour>
  </outline>
</glyph>
<glyph name="nine" format="1">
  <advance width="461"/>
  <unicode hex="0039"/>
  <outline>
    <contour>
      <point x="430" y="467" type="curve" smooth="yes"/>
      <point x="430" y="286"/>
      <point x="359" y="130"/>
      <point x="243" y="0" type="curve"/>
      <point x="120" y="0" type="line"/>
      <point x="234" y="109"/>
      <point x="307" y="238"/>
      <point x="328" y="341" type="curve"/>
      <point x="324" y="341" type="line"/>
      <point x="296" y="298"/>
      <point x="258" y="264"/>
      <point x="194" y="264" type="curve" smooth="yes"/>
      <point x="97" y="264"/>
      <point x="21" y="341"/>
      <point x="21" y="488" type="curve" smooth="yes"/>
      <point x="21" y="641"/>
      <point x="104" y="732"/>
      <point x="229" y="732" type="curve" smooth="yes"/>
      <point x="354" y="732"/>
      <point x="430" y="644"/>
    </contour>
    <contour>
      <point x="330" y="495" type="curve" smooth="yes"/>
      <point x="330" y="591"/>
      <point x="296" y="659"/>
      <point x="226" y="659" type="curve" smooth="yes"/>
      <point x="156" y="659"/>
      <point x="121" y="591"/>
      <point x="121" y="495" type="curve" smooth="yes"/>
      <point x="121" y="400"/>
      <point x="152" y="336"/>
      <point x="222" y="336" type="curve" smooth="yes"/>
      <point x="293" y="336"/>
      <point x="330" y="407"/>
    </contour>
  </outline>
</glyph>
<glyph name="colon" format="1">
  <advance width="196"/>
  <unicode hex="003A"/>
  <outline>
    <contour>
      <point x="156" y="472" type="curve" smooth="yes"/>
      <point x="156" y="438"/>
      <point x="131" y="414"/>
      <point x="98" y="414" type="curve" smooth="yes"/>
      <point x="65" y="414"/>
      <point x="40" y="438"/>
      <point x="40" y="472" type="curve" smooth="yes"/>
      <point x="40" y="505"/>
      <point x="65" y="530"/>
      <point x="98" y="530" type="curve" smooth="yes"/>
      <point x="131" y="530"/>
      <point x="156" y="505"/>
    </contour>
    <contour>
      <point x="156" y="51" type="curve" smooth="yes"/>
      <point x="156" y="17"/>
      <point x="131" y="-7"/>
      <point x="98" y="-7" type="curve" smooth="yes"/>
      <point x="65" y="-7"/>
      <point x="40" y="17"/>
      <point x="40" y="51" type="curve" smooth="yes"/>
      <point x="40" y="84"/>
      <point x="65" y="109"/>
      <point x="98" y="109" type="curve" smooth="yes"/>
      <point x="131" y="109"/>
      <point x="156" y="84"/>
    </contour>
  </outline>
</glyph>
<glyph name="at" format="1">
  <advance width="779"/>
  <unicode hex="0040"/>
  <outline>
    <contour>
      <point x="738" y="332" type="curve" smooth="yes"/>
      <point x="738" y="135"/>
      <point x="649" y="28"/>
      <point x="553" y="28" type="curve" smooth="yes"/>
      <point x="488" y="28"/>
      <point x="442" y="67"/>
      <point x="439" y="142" type="curve"/>
      <point x="435" y="142" type="line"/>
      <point x="399" y="68"/>
      <point x="356" y="28"/>
      <point x="301" y="28" type="curve" smooth="yes"/>
      <point x="245" y="28"/>
      <point x="204" y="78"/>
      <point x="204" y="181" type="curve" smooth="yes"/>
      <point x="204" y="359"/>
      <point x="278" y="516"/>
      <point x="374" y="516" type="curve" smooth="yes"/>
      <point x="431" y="516"/>
      <point x="457" y="469"/>
      <point x="470" y="404" type="curve"/>
      <point x="473" y="403" type="line"/>
      <point x="494" y="515" type="line"/>
      <point x="571" y="495" type="line"/>
      <point x="514" y="187" type="line" smooth="yes"/>
      <point x="501" y="116"/>
      <point x="523" y="67"/>
      <point x="573" y="67" type="curve" smooth="yes"/>
      <point x="642" y="67"/>
      <point x="703" y="175"/>
      <point x="703" y="331" type="curve" smooth="yes"/>
      <point x="703" y="560"/>
      <point x="586" y="701"/>
      <point x="402" y="701" type="curve" smooth="yes"/>
      <point x="213" y="701"/>
      <point x="71" y="522"/>
      <point x="71" y="266" type="curve" smooth="yes"/>
      <point x="71" y="1"/>
      <point x="195" y="-161"/>
      <point x="395" y="-161" type="curve" smooth="yes"/>
      <point x="491" y="-161"/>
      <point x="559" y="-133"/>
      <point x="629" y="-82" type="curve"/>
      <point x="645" y="-110" type="line"/>
      <point x="571" y="-162"/>
      <point x="496" y="-192"/>
      <point x="393" y="-192" type="curve" smooth="yes"/>
      <point x="176" y="-192"/>
      <point x="36" y="-23"/>
      <point x="36" y="265" type="curve" smooth="yes"/>
      <point x="36" y="547"/>
      <point x="200" y="732"/>
      <point x="404" y="732" type="curve" smooth="yes"/>
      <point x="593" y="732"/>
      <point x="738" y="588"/>
    </contour>
    <contour>
      <point x="458" y="330" type="curve" smooth="yes"/>
      <point x="459" y="389"/>
      <point x="437" y="451"/>
      <point x="396" y="451" type="curve" smooth="yes"/>
      <point x="335" y="451"/>
      <point x="285" y="324"/>
      <point x="285" y="188" type="curve" smooth="yes"/>
      <point x="285" y="127"/>
      <point x="303" y="87"/>
      <point x="338" y="87" type="curve" smooth="yes"/>
      <point x="395" y="87"/>
      <point x="455" y="210"/>
    </contour>
  </outline>
</glyph>
<glyph name="E" format="1">
  <advance width="427"/>
  <unicode hex="0045"/>
  <outline>
    <contour>
      <point x="403" y="0" type="line"/>
      <point x="54" y="0" type="line"/>
      <point x="54" y="720" type="line"/>
      <point x="394" y="720" type="line"/>
      <point x="394" y="638" type="line"/>
      <point x="154" y="638" type="line"/>
      <point x="154" y="414" type="line"/>
      <point x="343" y="414" type="line"/>
      <point x="343" y="336" type="line"/>
      <point x="154" y="336" type="line"/>
      <point x="154" y="82" type="line"/>
      <point x="403" y="82" type="line"/>
    </contour>
  </outline>
</glyph>
<glyph name="I" format="1">
  <advance width="330"/>
  <unicode hex="0049"/>
  <outline>
    <contour>
      <point x="294" y="0" type="line"/>
      <point x="36" y="0" type="line"/>
      <point x="36" y="40" type="line"/>
      <point x="115" y="40" type="line"/>
      <point x="115" y="680" type="line"/>
      <point x="36" y="680" type="line"/>
      <point x="36" y="720" type="line"/>
      <point x="294" y="720" type="line"/>
      <point x="294" y="680" type="line"/>
      <point x="215" y="680" type="line"/>
      <point x="215" y="40" type="line"/>
      <point x="294" y="40" type="line"/>
    </contour>
  </outline>
</glyph>
<glyph name="J" format="1">
  <advance width="415"/>
  <unicode hex="004A"/>
  <outline>
    <contour>
      <point x="364" y="197" type="line" smooth="yes"/>
      <point x="364" y="54"/>
      <point x="296" y="-12"/>
      <point x="185" y="-12" type="curve" smooth="yes"/>
      <point x="77" y="-12"/>
      <point x="15" y="53"/>
      <point x="15" y="195" type="curve"/>
      <point x="108" y="220" type="line"/>
      <point x="109" y="108"/>
      <point x="137" y="67"/>
      <point x="188" y="67" type="curve" smooth="yes"/>
      <point x="236" y="67"/>
      <point x="262" y="106"/>
      <point x="262" y="195" type="curve" smooth="yes"/>
      <point x="262" y="720" type="line"/>
      <point x="364" y="720" type="line"/>
    </contour>
  </outline>
</glyph>
<glyph name="K" format="1">
  <advance width="494"/>
  <unicode hex="004B"/>
  <outline>
    <contour>
      <point x="494" y="0" type="line"/>
      <point x="380" y="0" type="line"/>
      <point x="174" y="385" type="line"/>
      <point x="174" y="387" type="line"/>
      <point x="373" y="720" type="line"/>
      <point x="483" y="720" type="line"/>
      <point x="279" y="391" type="line"/>
    </contour>
    <contour>
      <point x="156" y="0" type="line"/>
      <point x="54" y="0" type="line"/>
      <point x="54" y="720" type="line"/>
      <point x="156" y="720" type="line"/>
    </contour>
  </outline>
</glyph>
<glyph name="M" format="1">
  <advance width="679"/>
  <unicode hex="004D"/>
  <outline>
    <contour>
      <point x="626" y="0" type="line"/>
      <point x="530" y="0" type="line"/>
      <point x="530" y="603" type="line"/>
      <point x="525" y="603" type="line"/>
      <point x="391" y="0" type="line"/>
      <point x="284" y="0" type="line"/>
      <point x="147" y="603" type="line"/>
      <point x="142" y="603" type="line"/>
      <point x="142" y="0" type="line"/>
      <point x="54" y="0" type="line"/>
      <point x="54" y="720" type="line"/>
      <point x="206" y="720" type="line"/>
      <point x="339" y="128" type="line"/>
      <point x="343" y="128" type="line"/>
      <point x="475" y="720" type="line"/>
      <point x="626" y="720" type="line"/>
    </contour>
  </outline>
</glyph>
<glyph name="N" format="1">
  <advance width="509"/>
  <unicode hex="004E"/>
  <outline>
    <contour>
      <point x="456" y="0" type="line"/>
      <point x="358" y="0" type="line"/>
      <point x="142" y="536" type="line"/>
      <point x="138" y="536" type="line"/>
      <point x="138" y="0" type="line"/>
      <point x="54" y="0" type="line"/>
      <point x="54" y="720" type="line"/>
      <point x="159" y="720" type="line"/>
      <point x="367" y="203" type="line"/>
      <point x="371" y="203" type="line"/>
      <point x="371" y="720" type="line"/>
      <point x="456" y="720" type="line"/>
    </contour>
  </outline>
</glyph>
<glyph name="Q" format="1">
  <advance width="497"/>
  <unicode hex="0051"/>
  <outline>
    <contour>
      <point x="494" y="-106" type="line"/>
      <point x="483" y="-110"/>
      <point x="470" y="-111"/>
      <point x="458" y="-111" type="curve" smooth="yes"/>
      <point x="411" y="-111"/>
      <point x="386" y="-95"/>
      <point x="358" y="-44" type="curve" smooth="yes"/>
      <point x="330" y="7" type="line"/>
      <point x="306" y="-6"/>
      <point x="278" y="-12"/>
      <point x="249" y="-12" type="curve" smooth="yes"/>
      <point x="117" y="-12"/>
      <point x="35" y="104"/>
      <point x="35" y="310" type="curve" smooth="yes"/>
      <point x="35" y="409" type="line" smooth="yes"/>
      <point x="35" y="615"/>
      <point x="117" y="732"/>
      <point x="249" y="732" type="curve" smooth="yes"/>
      <point x="380" y="732"/>
      <point x="463" y="616"/>
      <point x="463" y="410" type="curve" smooth="yes"/>
      <point x="463" y="311" type="line" smooth="yes"/>
      <point x="463" y="186"/>
      <point x="432" y="95"/>
      <point x="379" y="41" type="curve"/>
      <point x="411" y="-12" type="line" smooth="yes"/>
      <point x="427" y="-38"/>
      <point x="440" y="-48"/>
      <point x="465" y="-48" type="curve" smooth="yes"/>
      <point x="474" y="-48"/>
      <point x="483" y="-46"/>
      <point x="494" y="-43" type="curve"/>
    </contour>
    <contour>
      <point x="363" y="262" type="curve" smooth="yes"/>
      <point x="363" y="430" type="line" smooth="yes"/>
      <point x="363" y="560"/>
      <point x="328" y="656"/>
      <point x="250" y="656" type="curve" smooth="yes"/>
      <point x="172" y="656"/>
      <point x="138" y="561"/>
      <point x="138" y="431" type="curve" smooth="yes"/>
      <point x="138" y="287" type="line" smooth="yes"/>
      <point x="138" y="156"/>
      <point x="172" y="61"/>
      <point x="250" y="61" type="curve" smooth="yes"/>
      <point x="269" y="61"/>
      <point x="285" y="66"/>
      <point x="299" y="76" type="curve"/>
      <point x="229" y="207" type="line"/>
      <point x="264" y="228" type="line"/>
      <point x="330" y="110" type="line"/>
      <point x="352" y="146"/>
      <point x="363" y="197"/>
    </contour>
  </outline>
</glyph>
<glyph name="backslash" format="1">
  <advance width="325"/>
  <unicode hex="005C"/>
  <outline>
    <contour>
      <point x="337" y="-95" type="line"/>
      <point x="255" y="-95" type="line"/>
      <point x="10" y="735" type="line"/>
      <point x="93" y="735" type="line"/>
    </contour>
  </outline>
</glyph>
<glyph name="a" format="1">
  <advance width="405"/>
  <unicode hex="0061"/>
  <outline>
    <contour>
      <point x="391" y="-4" type="line"/>
      <point x="318" y="-4"/>
      <point x="277" y="28"/>
      <point x="263" y="75" type="curve"/>
      <point x="259" y="75" type="line"/>
      <point x="232" y="31"/>
      <point x="192" y="-7"/>
      <point x="136" y="-7" type="curve" smooth="yes"/>
      <point x="68" y="-7"/>
      <point x="20" y="43"/>
      <point x="20" y="129" type="curve" smooth="yes"/>
      <point x="20" y="228"/>
      <point x="96" y="299"/>
      <point x="257" y="313" type="curve"/>
      <point x="257" y="377" type="line" smooth="yes"/>
      <point x="257" y="432"/>
      <point x="237" y="458"/>
      <point x="196" y="458" type="curve" smooth="yes"/>
      <point x="159" y="458"/>
      <point x="123" y="444"/>
      <point x="74" y="414" type="curve"/>
      <point x="46" y="475" type="line"/>
      <point x="99" y="507"/>
      <point x="155" y="530"/>
      <point x="223" y="530" type="curve" smooth="yes"/>
      <point x="314" y="530"/>
      <point x="352" y="486"/>
      <point x="352" y="384" type="curve" smooth="yes"/>
      <point x="352" y="101" type="line" smooth="yes"/>
      <point x="352" y="64"/>
      <point x="363" y="45"/>
      <point x="391" y="42" type="curve"/>
    </contour>
    <contour>
      <point x="257" y="117" type="curve"/>
      <point x="257" y="269" type="line"/>
      <point x="151" y="256"/>
      <point x="111" y="202"/>
      <point x="111" y="141" type="curve" smooth="yes"/>
      <point x="111" y="88"/>
      <point x="138" y="57"/>
      <point x="179" y="57" type="curve" smooth="yes"/>
      <point x="208" y="57"/>
      <point x="235" y="76"/>
    </contour>
  </outline>
</glyph>
<glyph name="f" format="1">
  <advance width="277"/>
  <unicode hex="0066"/>
  <outline>
    <contour>
      <point x="291" y="678" type="line"/>
      <point x="273" y="687"/>
      <point x="259" y="692"/>
      <point x="235" y="692" type="curve" smooth="yes"/>
      <point x="201" y="692"/>
      <point x="179" y="672"/>
      <point x="179" y="622" type="curve" smooth="yes"/>
      <point x="179" y="521" type="line"/>
      <point x="271" y="521" type="line"/>
      <point x="271" y="454" type="line"/>
      <point x="179" y="454" type="line"/>
      <point x="179" y="0" type="line"/>
      <point x="84" y="0" type="line"/>
      <point x="84" y="454" type="line"/>
      <point x="8" y="454" type="line"/>
      <point x="8" y="521" type="line"/>
      <point x="84" y="521" type="line"/>
      <point x="84" y="628" type="line" smooth="yes"/>
      <point x="84" y="715"/>
      <point x="131" y="759"/>
      <point x="208" y="759" type="curve" smooth="yes"/>
      <point x="249" y="759"/>
      <point x="268" y="755"/>
      <point x="291" y="747" type="curve"/>
    </contour>
  </outline>
</glyph>
<glyph name="h" format="1">
  <advance width="417"/>
  <unicode hex="0068"/>
  <outline>
    <contour>
      <point x="374" y="0" type="line"/>
      <point x="277" y="0" type="line"/>
      <point x="277" y="395" type="line" smooth="yes"/>
      <point x="277" y="437"/>
      <point x="263" y="455"/>
      <point x="233" y="455" type="curve" smooth="yes"/>
      <point x="204" y="455"/>
      <point x="172" y="430"/>
      <point x="142" y="380" type="curve"/>
      <point x="142" y="0" type="line"/>
      <point x="45" y="0" type="line"/>
      <point x="45" y="737" type="line"/>
      <point x="142" y="759" type="line"/>
      <point x="142" y="426" type="line"/>
      <point x="146" y="426" type="line"/>
      <point x="191" y="492"/>
      <point x="230" y="530"/>
      <point x="285" y="530" type="curve" smooth="yes"/>
      <point x="343" y="530"/>
      <point x="374" y="488"/>
      <point x="374" y="417" type="curve" smooth="yes"/>
    </contour>
  </outline>
</glyph>
<glyph name="l" format="1">
  <advance width="197"/>
  <unicode hex="006C"/>
  <outline>
    <contour>
      <point x="147" y="0" type="line"/>
      <point x="50" y="0" type="line"/>
      <point x="50" y="737" type="line"/>
      <point x="147" y="759" type="line"/>
    </contour>
  </outline>
</glyph>
<glyph name="o" format="1">
  <advance width="412"/>
  <unicode hex="006F"/>
  <outline>
    <contour>
      <point x="385" y="240" type="line" smooth="yes"/>
      <point x="385" y="90"/>
      <point x="317" y="-10"/>
      <point x="206" y="-10" type="curve" smooth="yes"/>
      <point x="95" y="-10"/>
      <point x="28" y="90"/>
      <point x="28" y="240" type="curve" smooth="yes"/>
      <point x="28" y="285" type="line" smooth="yes"/>
      <point x="28" y="434"/>
      <point x="96" y="534"/>
      <point x="207" y="534" type="curve" smooth="yes"/>
      <point x="318" y="534"/>
      <point x="385" y="434"/>
      <point x="385" y="285" type="curve" smooth="yes"/>
    </contour>
    <contour>
      <point x="289" y="233" type="curve" smooth="yes"/>
      <point x="289" y="291" type="line" smooth="yes"/>
      <point x="289" y="400"/>
      <point x="258" y="469"/>
      <point x="206" y="469" type="curve" smooth="yes"/>
      <point x="153" y="469"/>
      <point x="124" y="400"/>
      <point x="124" y="291" type="curve" smooth="yes"/>
      <point x="124" y="233" type="line" smooth="yes"/>
      <point x="124" y="124"/>
      <point x="155" y="55"/>
      <point x="207" y="55" type="curve" smooth="yes"/>
      <point x="259" y="55"/>
      <point x="289" y="124"/>
    </contour>
  </outline>
</glyph>
<glyph name="r" format="1">
  <advance width="315"/>
  <unicode hex="0072"/>
  <outline>
    <contour>
      <point x="307" y="427" type="line"/>
      <point x="236" y="412"/>
      <point x="184" y="360"/>
      <point x="142" y="294" type="curve"/>
      <point x="142" y="0" type="line"/>
      <point x="45" y="0" type="line"/>
      <point x="45" y="511" type="line"/>
      <point x="142" y="533" type="line"/>
      <point x="142" y="351" type="line"/>
      <point x="147" y="351" type="line"/>
      <point x="200" y="463"/>
      <point x="250" y="522"/>
      <point x="307" y="533" type="curve"/>
    </contour>
  </outline>
</glyph>
<glyph name="s" format="1">
  <advance width="344"/>
  <unicode hex="0073"/>
  <outline>
    <contour>
      <point x="322" y="142" type="curve" smooth="yes"/>
      <point x="322" y="44"/>
      <point x="257" y="-9"/>
      <point x="172" y="-9" type="curve" smooth="yes"/>
      <point x="102" y="-9"/>
      <point x="51" y="25"/>
      <point x="15" y="78" type="curve"/>
      <point x="68" y="132" type="line"/>
      <point x="101" y="85"/>
      <point x="135" y="60"/>
      <point x="174" y="60" type="curve" smooth="yes"/>
      <point x="215" y="60"/>
      <point x="242" y="89"/>
      <point x="242" y="130" type="curve" smooth="yes"/>
      <point x="242" y="173"/>
      <point x="224" y="194"/>
      <point x="156" y="226" type="curve" smooth="yes"/>
      <point x="68" y="267"/>
      <point x="30" y="314"/>
      <point x="30" y="389" type="curve" smooth="yes"/>
      <point x="30" y="477"/>
      <point x="91" y="533"/>
      <point x="172" y="533" type="curve" smooth="yes"/>
      <point x="234" y="533"/>
      <point x="278" y="506"/>
      <point x="313" y="458" type="curve"/>
      <point x="260" y="404" type="line"/>
      <point x="230" y="446"/>
      <point x="203" y="464"/>
      <point x="170" y="464" type="curve" smooth="yes"/>
      <point x="132" y="464"/>
      <point x="110" y="436"/>
      <point x="110" y="400" type="curve" smooth="yes"/>
      <point x="110" y="361"/>
      <point x="129" y="341"/>
      <point x="193" y="311" type="curve" smooth="yes"/>
      <point x="283" y="269"/>
      <point x="322" y="222"/>
    </contour>
  </outline>
</glyph>
<glyph name="t" format="1">
  <advance width="302"/>
  <unicode hex="0074"/>
  <outline>
    <contour>
      <point x="286" y="25" type="line"/>
      <point x="249" y="3"/>
      <point x="217" y="-7"/>
      <point x="181" y="-7" type="curve" smooth="yes"/>
      <point x="115" y="-7"/>
      <point x="79" y="24"/>
      <point x="79" y="99" type="curve" smooth="yes"/>
      <point x="79" y="454" type="line"/>
      <point x="10" y="454" type="line"/>
      <point x="10" y="521" type="line"/>
      <point x="79" y="521" type="line"/>
      <point x="79" y="692" type="line"/>
      <point x="174" y="730" type="line"/>
      <point x="174" y="521" type="line"/>
      <point x="271" y="521" type="line"/>
      <point x="271" y="454" type="line"/>
      <point x="174" y="454" type="line"/>
      <point x="174" y="120" type="line" smooth="yes"/>
      <point x="174" y="84"/>
      <point x="191" y="68"/>
      <point x="218" y="68" type="curve" smooth="yes"/>
      <point x="238" y="68"/>
      <point x="258" y="75"/>
      <point x="286" y="94" type="curve"/>
    </contour>
  </outline>
</glyph>
<glyph name="u" format="1">
  <advance width="417"/>
  <unicode hex="0075"/>
  <outline>
    <contour>
      <point x="372" y="13" type="line"/>
      <point x="275" y="-9" type="line"/>
      <point x="275" y="98" type="line"/>
      <point x="271" y="98" type="line"/>
      <point x="226" y="32"/>
      <point x="187" y="-6"/>
      <point x="132" y="-6" type="curve" smooth="yes"/>
      <point x="74" y="-6"/>
      <point x="43" y="36"/>
      <point x="43" y="108" type="curve" smooth="yes"/>
      <point x="43" y="524" type="line"/>
      <point x="140" y="524" type="line"/>
      <point x="140" y="129" type="line" smooth="yes"/>
      <point x="140" y="88"/>
      <point x="154" y="69"/>
      <point x="184" y="69" type="curve" smooth="yes"/>
      <point x="213" y="69"/>
      <point x="245" y="94"/>
      <point x="275" y="145" type="curve"/>
      <point x="275" y="524" type="line"/>
      <point x="372" y="524" type="line"/>
    </contour>
  </outline>
</glyph>
<glyph name="w" format="1">
  <advance width="633"/>
  <unicode hex="0077"/>
  <outline>
    <contour>
      <point x="617" y="524" type="line"/>
      <point x="500" y="-4" type="line"/>
      <point x="396" y="-4" type="line"/>
      <point x="318" y="391" type="line"/>
      <point x="238" y="-4" type="line"/>
      <point x="133" y="-4" type="line"/>
      <point x="16" y="524" type="line"/>
      <point x="111" y="524" type="line"/>
      <point x="191" y="115" type="line"/>
      <point x="269" y="524" type="line"/>
      <point x="369" y="524" type="line"/>
      <point x="447" y="115" type="line"/>
      <point x="527" y="524" type="line"/>
    </contour>
  </outline>
</glyph>
<glyph name="z" format="1">
  <advance width="350"/>
  <unicode hex="007A"/>
  <outline>
    <contour>
      <point x="328" y="0" type="line"/>
      <point x="19" y="0" type="line"/>
      <point x="19" y="60" type="line"/>
      <point x="223" y="452" type="line"/>
      <point x="31" y="452" type="line"/>
      <point x="31" y="521" type="line"/>
      <point x="328" y="521" type="line"/>
      <point x="328" y="461" type="line"/>
      <point x="124" y="69" type="line"/>
      <point x="328" y="69" type="line"/>
    </contour>
  </outline>
</glyph>
<glyph name="braceright" format="1">
  <advance width="329"/>
  <unicode hex="007D"/>
  <outline>
    <contour>
      <point x="315" y="296" type="line"/>
      <point x="255" y="296"/>
      <point x="210" y="268"/>
      <point x="210" y="197" type="curve" smooth="yes"/>
      <point x="210" y="154"/>
      <point x="226" y="90"/>
      <point x="226" y="45" type="curve" smooth="yes"/>
      <point x="226" y="-39"/>
      <point x="186" y="-80"/>
      <point x="107" y="-80" type="curve" smooth="yes"/>
      <point x="24" y="-80" type="line"/>
      <point x="24" y="-33" type="line"/>
      <point x="73" y="-33" type="line" smooth="yes"/>
      <point x="120" y="-33"/>
      <point x="141" y="-7"/>
      <point x="141" y="45" type="curve" smooth="yes"/>
      <point x="141" y="84"/>
      <point x="126" y="144"/>
      <point x="126" y="193" type="curve" smooth="yes"/>
      <point x="126" y="270"/>
      <point x="167" y="297"/>
      <point x="212" y="316" type="curve"/>
      <point x="212" y="324" type="line"/>
      <point x="167" y="343"/>
      <point x="126" y="370"/>
      <point x="126" y="447" type="curve" smooth="yes"/>
      <point x="126" y="496"/>
      <point x="141" y="556"/>
      <point x="141" y="595" type="curve" smooth="yes"/>
      <point x="141" y="647"/>
      <point x="120" y="673"/>
      <point x="73" y="673" type="curve" smooth="yes"/>
      <point x="24" y="673" type="line"/>
      <point x="24" y="720" type="line"/>
      <point x="107" y="720" type="line" smooth="yes"/>
      <point x="186" y="720"/>
      <point x="226" y="679"/>
      <point x="226" y="595" type="curve" smooth="yes"/>
      <point x="226" y="550"/>
      <point x="210" y="486"/>
      <point x="210" y="443" type="curve" smooth="yes"/>
      <point x="210" y="372"/>
      <point x="255" y="344"/>
      <point x="315" y="344" type="curve"/>
    </contour>
  </outline>
</glyph>
<glyph name="exclamdown" format="1">
  <advance width="216"/>
  <unicode hex="00A1"/>
  <outline>
    <contour>
      <point x="166" y="669" type="curve" smooth="yes"/>
      <point x="166" y="636"/>
      <point x="141" y="611"/>
      <point x="108" y="611" type="curve" smooth="yes"/>
      <point x="75" y="611"/>
      <point x="50" y="636"/>
      <point x="50" y="669" type="curve" smooth="yes"/>
      <point x="50" y="703"/>
      <point x="75" y="727"/>
      <point x="108" y="727" type="curve" smooth="yes"/>
      <point x="141" y="727"/>
      <point x="166" y="703"/>
    </contour>
    <contour>
      <point x="165" y="0" type="line"/>
      <point x="51" y="0" type="line"/>
      <point x="82" y="519" type="line"/>
      <point x="134" y="519" type="line"/>
    </contour>
  </outline>
</glyph>
<glyph name="paragraph" format="1">
  <advance width="440"/>
  <unicode hex="00B6"/>
  <outline>
    <contour>
      <point x="384" y="0" type="line"/>
      <point x="338" y="0" type="line"/>
      <point x="338" y="673" type="line"/>
      <point x="259" y="673" type="line"/>
      <point x="259" y="0" type="line"/>
      <point x="213" y="0" type="line"/>
      <point x="213" y="337" type="line"/>
      <point x="102" y="345"/>
      <point x="23" y="400"/>
      <point x="23" y="531" type="curve" smooth="yes"/>
      <point x="23" y="660"/>
      <point x="103" y="720"/>
      <point x="222" y="720" type="curve" smooth="yes"/>
      <point x="384" y="720" type="line"/>
    </contour>
  </outline>
</glyph>
<glyph name="cedilla" format="1">
  <advance width="394"/>
  <unicode hex="00B8"/>
  <outline>
    <contour>
      <point x="295" y="-87" type="curve" smooth="yes"/>
      <point x="295" y="-143"/>
      <point x="236" y="-170"/>
      <point x="107" y="-167" type="curve"/>
      <point x="107" y="-142" type="line"/>
      <point x="205" y="-141"/>
      <point x="238" y="-125"/>
      <point x="238" y="-100" type="curve" smooth="yes"/>
      <point x="238" y="-86"/>
      <point x="228" y="-78"/>
      <point x="209" y="-78" type="curve" smooth="yes"/>
      <point x="193" y="-78"/>
      <point x="179" y="-81"/>
      <point x="165" y="-88" type="curve"/>
      <point x="143" y="-72" type="line"/>
      <point x="187" y="0" type="line"/>
      <point x="221" y="0" type="line"/>
      <point x="195" y="-43" type="line"/>
      <point x="205" y="-39"/>
      <point x="218" y="-37"/>
      <point x="233" y="-37" type="curve" smooth="yes"/>
      <point x="271" y="-37"/>
      <point x="295" y="-54"/>
    </contour>
  </outline>
</glyph>
<glyph name="multiply" format="1">
  <advance width="486"/>
  <unicode hex="00D7"/>
  <outline>
    <contour>
      <point x="430" y="220" type="line"/>
      <point x="377" y="166" type="line"/>
      <point x="242" y="302" type="line"/>
      <point x="108" y="166" type="line"/>
      <point x="55" y="220" type="line"/>
      <point x="190" y="354" type="line"/>
      <point x="55" y="488" type="line"/>
      <point x="108" y="541" type="line"/>
      <point x="242" y="406" type="line"/>
      <point x="377" y="542" type="line"/>
      <point x="430" y="489" type="line"/>
      <point x="295" y="354" type="line"/>
    </contour>
  </outline>
</glyph>
<glyph name="Oslash" format="1">
  <advance width="497"/>
  <unicode hex="00D8"/>
  <outline>
    <contour>
      <point x="465" y="817" type="line"/>
      <point x="397" y="657" type="line"/>
      <point x="439" y="602"/>
      <point x="463" y="520"/>
      <point x="463" y="410" type="curve" smooth="yes"/>
      <point x="463" y="311" type="line" smooth="yes"/>
      <point x="463" y="105"/>
      <point x="380" y="-12"/>
      <point x="249" y="-12" type="curve" smooth="yes"/>
      <point x="207" y="-12"/>
      <point x="170" y="1"/>
      <point x="140" y="25" type="curve"/>
      <point x="91" y="-97" type="line"/>
      <point x="33" y="-97" type="line"/>
      <point x="101" y="63" type="line"/>
      <point x="60" y="118"/>
      <point x="35" y="199"/>
      <point x="35" y="310" type="curve" smooth="yes"/>
      <point x="35" y="409" type="line" smooth="yes"/>
      <point x="35" y="615"/>
      <point x="117" y="732"/>
      <point x="249" y="732" type="curve" smooth="yes"/>
      <point x="291" y="732"/>
      <point x="328" y="719"/>
      <point x="358" y="695" type="curve"/>
      <point x="407" y="817" type="line"/>
    </contour>
    <contour>
      <point x="325" y="612" type="line"/>
      <point x="307" y="641"/>
      <point x="284" y="659"/>
      <point x="249" y="659" type="curve" smooth="yes"/>
      <point x="171" y="659"/>
      <point x="137" y="564"/>
      <point x="137" y="434" type="curve" smooth="yes"/>
      <point x="137" y="321" type="line" smooth="yes"/>
      <point x="137" y="253"/>
      <point x="142" y="199"/>
      <point x="150" y="166" type="curve"/>
    </contour>
    <contour>
      <point x="360" y="286" type="curve" smooth="yes"/>
      <point x="360" y="397" type="line" smooth="yes"/>
      <point x="360" y="463"/>
      <point x="358" y="512"/>
      <point x="348" y="554" type="curve"/>
      <point x="173" y="108" type="line"/>
      <point x="190" y="78"/>
      <point x="216" y="61"/>
      <point x="249" y="61" type="curve" smooth="yes"/>
      <point x="326" y="61"/>
      <point x="360" y="156"/>
    </contour>
  </outline>
</glyph>
<glyph name="ae" format="1">
  <advance width="625"/>
  <unicode hex="00E6"/>
  <outline>
    <contour>
      <point x="598" y="240" type="line"/>
      <point x="350" y="240" type="line"/>
      <point x="350" y="226" type="line" smooth="yes"/>
      <point x="350" y="120"/>
      <point x="391" y="65"/>
      <point x="458" y="65" type="curve" smooth="yes"/>
      <point x="496" y="65"/>
      <point x="536" y="83"/>
      <point x="572" y="114" type="curve"/>
      <point x="598" y="51" type="line"/>
      <point x="555" y="15"/>
      <point x="505" y="-9"/>
      <point x="442" y="-9" type="curve" smooth="yes"/>
      <point x="374" y="-9"/>
      <point x="321" y="25"/>
      <point x="294" y="82" type="curve"/>
      <point x="291" y="82" type="line"/>
      <point x="252" y="23"/>
      <point x="199" y="-7"/>
      <point x="141" y="-7" type="curve" smooth="yes"/>
      <point x="73" y="-7"/>
      <point x="20" y="38"/>
      <point x="20" y="129" type="curve" smooth="yes"/>
      <point x="20" y="228"/>
      <point x="96" y="299"/>
      <point x="257" y="313" type="curve"/>
      <point x="257" y="377" type="line" smooth="yes"/>
      <point x="257" y="432"/>
      <point x="237" y="458"/>
      <point x="196" y="458" type="curve" smooth="yes"/>
      <point x="159" y="458"/>
      <point x="123" y="444"/>
      <point x="74" y="414" type="curve"/>
      <point x="46" y="475" type="line"/>
      <point x="99" y="507"/>
      <point x="155" y="530"/>
      <point x="221" y="530" type="curve" smooth="yes"/>
      <point x="284" y="530"/>
      <point x="309" y="498"/>
      <point x="315" y="450" type="curve"/>
      <point x="320" y="450" type="line"/>
      <point x="340" y="500"/>
      <point x="381" y="534"/>
      <point x="434" y="534" type="curve" smooth="yes"/>
      <point x="537" y="534"/>
      <point x="598" y="431"/>
      <point x="598" y="268" type="curve" smooth="yes"/>
    </contour>
    <contour>
      <point x="508" y="287" type="line"/>
      <point x="506" y="406"/>
      <point x="478" y="471"/>
      <point x="431" y="471" type="curve" smooth="yes"/>
      <point x="379" y="471"/>
      <point x="350" y="408"/>
      <point x="350" y="289" type="curve" smooth="yes"/>
      <point x="350" y="287" type="line"/>
    </contour>
    <contour>
      <point x="273" y="127" type="curve"/>
      <point x="265" y="154"/>
      <point x="260" y="192"/>
      <point x="260" y="236" type="curve" smooth="yes"/>
      <point x="260" y="237"/>
      <point x="260" y="269"/>
      <point x="260" y="270" type="curve"/>
      <point x="151" y="257"/>
      <point x="111" y="202"/>
      <point x="111" y="141" type="curve" smooth="yes"/>
      <point x="111" y="86"/>
      <point x="140" y="57"/>
      <point x="179" y="57" type="curve" smooth="yes"/>
      <point x="211" y="57"/>
      <point x="247" y="77"/>
    </contour>
  </outline>
</glyph>
<glyph name="ccedilla" format="1">
  <advance width="374"/>
  <unicode hex="00E7"/>
  <outline>
    <contour>
      <point x="354" y="145" type="line"/>
      <point x="337" y="54"/>
      <point x="292" y="-6"/>
      <point x="209" y="-10" type="curve"/>
      <point x="189" y="-43" type="line"/>
      <point x="199" y="-39"/>
      <point x="212" y="-37"/>
      <point x="226" y="-37" type="curve" smooth="yes"/>
      <point x="264" y="-37"/>
      <point x="289" y="-54"/>
      <point x="289" y="-87" type="curve" smooth="yes"/>
      <point x="289" y="-143"/>
      <point x="230" y="-170"/>
      <point x="101" y="-167" type="curve"/>
      <point x="101" y="-142" type="line"/>
      <point x="198" y="-141"/>
      <point x="232" y="-125"/>
      <point x="232" y="-100" type="curve" smooth="yes"/>
      <point x="232" y="-86"/>
      <point x="221" y="-78"/>
      <point x="202" y="-78" type="curve" smooth="yes"/>
      <point x="187" y="-78"/>
      <point x="172" y="-81"/>
      <point x="158" y="-88" type="curve"/>
      <point x="137" y="-72" type="line"/>
      <point x="176" y="-8" type="line"/>
      <point x="84" y="4"/>
      <point x="28" y="96"/>
      <point x="28" y="234" type="curve" smooth="yes"/>
      <point x="28" y="289" type="line" smooth="yes"/>
      <point x="28" y="437"/>
      <point x="97" y="534"/>
      <point x="199" y="534" type="curve" smooth="yes"/>
      <point x="293" y="534"/>
      <point x="338" y="467"/>
      <point x="353" y="377" type="curve"/>
      <point x="271" y="359" type="line"/>
      <point x="259" y="430"/>
      <point x="240" y="466"/>
      <point x="200" y="466" type="curve" smooth="yes"/>
      <point x="153" y="466"/>
      <point x="124" y="404"/>
      <point x="124" y="296" type="curve" smooth="yes"/>
      <point x="124" y="229" type="line" smooth="yes"/>
      <point x="124" y="121"/>
      <point x="154" y="58"/>
      <point x="203" y="58" type="curve" smooth="yes"/>
      <point x="239" y="58"/>
      <point x="264" y="92"/>
      <point x="276" y="163" type="curve"/>
    </contour>
  </outline>
</glyph>
<glyph name="oslash" format="1">
  <advance width="413"/>
  <unicode hex="00F8"/>
  <outline>
    <contour>
      <point x="382" y="619" type="line"/>
      <point x="324" y="482" type="line"/>
      <point x="363" y="437"/>
      <point x="385" y="370"/>
      <point x="385" y="285" type="curve" smooth="yes"/>
      <point x="385" y="240" type="line" smooth="yes"/>
      <point x="385" y="90"/>
      <point x="317" y="-10"/>
      <point x="206" y="-10" type="curve" smooth="yes"/>
      <point x="177" y="-10"/>
      <point x="150" y="-2"/>
      <point x="127" y="13" type="curve"/>
      <point x="84" y="-95" type="line"/>
      <point x="31" y="-95" type="line"/>
      <point x="89" y="43" type="line"/>
      <point x="49" y="87"/>
      <point x="28" y="154"/>
      <point x="28" y="240" type="curve" smooth="yes"/>
      <point x="28" y="285" type="line" smooth="yes"/>
      <point x="28" y="434"/>
      <point x="96" y="534"/>
      <point x="207" y="534" type="curve" smooth="yes"/>
      <point x="237" y="534"/>
      <point x="264" y="526"/>
      <point x="286" y="511" type="curve"/>
      <point x="329" y="619" type="line"/>
    </contour>
    <contour>
      <point x="258" y="442" type="line"/>
      <point x="245" y="460"/>
      <point x="229" y="471"/>
      <point x="206" y="471" type="curve" smooth="yes"/>
      <point x="153" y="471"/>
      <point x="124" y="402"/>
      <point x="124" y="292" type="curve" smooth="yes"/>
      <point x="124" y="239" type="line" smooth="yes"/>
      <point x="124" y="203"/>
      <point x="128" y="155"/>
      <point x="134" y="130" type="curve"/>
    </contour>
    <contour>
      <point x="289" y="233" type="curve" smooth="yes"/>
      <point x="289" y="282" type="line" smooth="yes"/>
      <point x="289" y="332"/>
      <point x="284" y="371"/>
      <point x="279" y="395" type="curve"/>
      <point x="155" y="82" type="line"/>
      <point x="168" y="63"/>
      <point x="186" y="53"/>
      <point x="207" y="53" type="curve" smooth="yes"/>
      <point x="260" y="53"/>
      <point x="289" y="123"/>
    </contour>
  </outline>
</glyph>
<glyph name="lslash" format="1">
  <advance width="279"/>
  <unicode hex="0142"/>
  <outline>
    <contour>
      <point x="260" y="389" type="line"/>
      <point x="190" y="352" type="line"/>
      <point x="190" y="0" type="line"/>
      <point x="89" y="0" type="line"/>
      <point x="89" y="310" type="line"/>
      <point x="20" y="274" type="line"/>
      <point x="20" y="359" type="line"/>
      <point x="89" y="395" type="line"/>
      <point x="89" y="737" type="line"/>
      <point x="190" y="759" type="line"/>
      <point x="190" y="437" type="line"/>
      <point x="260" y="474" type="line"/>
    </contour>
  </outline>
</glyph>
<glyph name="florin" format="1">
  <advance width="384"/>
  <unicode hex="0192"/>
  <outline>
    <contour>
      <point x="376" y="712" type="curve"/>
      <point x="373" y="639" type="line"/>
      <point x="352" y="647"/>
      <point x="335" y="650"/>
      <point x="310" y="650" type="curve" smooth="yes"/>
      <point x="274" y="650"/>
      <point x="250" y="628"/>
      <point x="243" y="576" type="curve" smooth="yes"/>
      <point x="227" y="463" type="line"/>
      <point x="329" y="463" type="line"/>
      <point x="319" y="390" type="line"/>
      <point x="217" y="390" type="line"/>
      <point x="154" y="-62" type="line" smooth="yes"/>
      <point x="141" y="-158"/>
      <point x="87" y="-190"/>
      <point x="22" y="-190" type="curve" smooth="yes"/>
      <point x="-7" y="-190"/>
      <point x="-31" y="-185"/>
      <point x="-49" y="-180" type="curve"/>
      <point x="-39" y="-108" type="line"/>
      <point x="-26" y="-112"/>
      <point x="-10" y="-115"/>
      <point x="7" y="-115" type="curve" smooth="yes"/>
      <point x="36" y="-115"/>
      <point x="54" y="-98"/>
      <point x="60" y="-52" type="curve" smooth="yes"/>
      <point x="122" y="390" type="line"/>
      <point x="43" y="390" type="line"/>
      <point x="53" y="463" type="line"/>
      <point x="132" y="463" type="line"/>
      <point x="150" y="585" type="line" smooth="yes"/>
      <point x="165" y="688"/>
      <point x="214" y="726"/>
      <point x="288" y="726" type="curve" smooth="yes"/>
      <point x="326" y="726"/>
      <point x="353" y="720"/>
    </contour>
  </outline>
</glyph>
<glyph name="ring" format="1">
  <advance width="394"/>
  <unicode hex="02DA"/>
  <outline>
    <contour>
      <point x="283" y="651" type="curve" smooth="yes"/>
      <point x="283" y="606"/>
      <point x="247" y="572"/>
      <point x="197" y="572" type="curve" smooth="yes"/>
      <point x="147" y="572"/>
      <point x="112" y="606"/>
      <point x="112" y="651" type="curve" smooth="yes"/>
      <point x="112" y="696"/>
      <point x="147" y="730"/>
      <point x="197" y="730" type="curve" smooth="yes"/>
      <point x="247" y="730"/>
      <point x="283" y="696"/>
    </contour>
    <contour>
      <point x="240" y="652" type="curve" smooth="yes"/>
      <point x="240" y="677"/>
      <point x="222" y="697"/>
      <point x="197" y="697" type="curve" smooth="yes"/>
      <point x="172" y="697"/>
      <point x="154" y="677"/>
      <point x="154" y="652" type="curve" smooth="yes"/>
      <point x="154" y="626"/>
      <point x="172" y="605"/>
      <point x="197" y="605" type="curve" smooth="yes"/>
      <point x="222" y="605"/>
      <point x="240" y="626"/>
    </contour>
  </outline>
</glyph>
<glyph name="ogonek" format="1">
  <advance width="394"/>
  <unicode hex="02DB"/>
  <outline>
    <contour>
      <point x="300" y="-136" type="line"/>
      <point x="266" y="-155"/>
      <point x="233" y="-166"/>
      <point x="195" y="-166" type="curve" smooth="yes"/>
      <point x="143" y="-166"/>
      <point x="111" y="-142"/>
      <point x="111" y="-100" type="curve" smooth="yes"/>
      <point x="111" y="-62"/>
      <point x="142" y="-27"/>
      <point x="189" y="0" type="curve"/>
      <point x="231" y="0" type="line"/>
      <point x="190" y="-32"/>
      <point x="173" y="-61"/>
      <point x="173" y="-87" type="curve" smooth="yes"/>
      <point x="173" y="-109"/>
      <point x="190" y="-124"/>
      <point x="215" y="-124" type="curve" smooth="yes"/>
      <point x="239" y="-124"/>
      <point x="260" y="-119"/>
      <point x="288" y="-108" type="curve"/>
    </contour>
  </outline>
</glyph>
<glyph name="emdash" format="1">
  <advance width="797"/>
  <unicode hex="2014"/>
  <outline>
    <contour>
      <point x="769" y="245" type="line"/>
      <point x="28" y="245" type="line"/>
      <point x="28" y="324" type="line"/>
      <point x="769" y="324" type="line"/>
    </contour>
  </outline>
</glyph>
<glyph name="quoteright" format="1">
  <advance width="180"/>
  <unicode hex="2019"/>
  <unicode hex="02BC"/>
  <outline>
    <contour>
      <point x="157" y="720" type="line"/>
      <point x="75" y="493" type="line"/>
      <point x="31" y="493" type="line"/>
      <point x="60" y="720" type="line"/>
    </contour>
  </outline>
</glyph>
<glyph name="quotedblleft" format="1">
  <advance width="328"/>
  <unicode hex="201C"/>
  <outline>
    <contour>
      <point x="297" y="493" type="line"/>
      <point x="255" y="493" type="line"/>
      <point x="173" y="720" type="line"/>
      <point x="268" y="720" type="line"/>
    </contour>
    <contour>
      <point x="147" y="493" type="line"/>
      <point x="105" y="493" type="line"/>
      <point x="23" y="720" type="line"/>
      <point x="119" y="720" type="line"/>
    </contour>
  </outline>
</glyph>
<glyph name="quotedblright" format="1">
  <advance width="328"/>
  <unicode hex="201D"/>
  <outline>
    <contour>
      <point x="305" y="720" type="line"/>
      <point x="223" y="493" type="line"/>
      <point x="181" y="493" type="line"/>
      <point x="209" y="720" type="line"/>
    </contour>
    <contour>
      <point x="155" y="720" type="line"/>
      <point x="73" y="493" type="line"/>
      <point x="31" y="493" type="line"/>
      <point x="60" y="720" type="line"/>
    </contour>
  </outline>
</glyph>
<glyph name="quotedblbase" format="1">
  <advance width="328"/>
  <unicode hex="201E"/>
  <outline>
    <contour>
      <point x="298" y="117" type="line"/>
      <point x="216" y="-110" type="line"/>
      <point x="174" y="-110" type="line"/>
      <point x="203" y="117" type="line"/>
    </contour>
    <contour>
      <point x="148" y="117" type="line"/>
      <point x="67" y="-110" type="line"/>
      <point x="25" y="-110" type="line"/>
      <point x="53" y="117" type="line"/>
    </contour>
  </outline>
</glyph>
<glyph name="daggerdbl" format="1">
  <advance width="383"/>
  <unicode hex="2021"/>
  <outline>
    <contour>
      <point x="350" y="164" type="line"/>
      <point x="215" y="189" type="line"/>
      <point x="239" y="0" type="line"/>
      <point x="143" y="0" type="line"/>
      <point x="167" y="189" type="line"/>
      <point x="32" y="164" type="line"/>
      <point x="32" y="247" type="line"/>
      <point x="167" y="223" type="line"/>
      <point x="145" y="360" type="line"/>
      <point x="167" y="497" type="line"/>
      <point x="32" y="473" type="line"/>
      <point x="32" y="556" type="line"/>
      <point x="167" y="531" type="line"/>
      <point x="143" y="720" type="line"/>
      <point x="239" y="720" type="line"/>
      <point x="215" y="531" type="line"/>
      <point x="350" y="556" type="line"/>
      <point x="350" y="473" type="line"/>
      <point x="215" y="497" type="line"/>
      <point x="237" y="360" type="line"/>
      <point x="215" y="223" type="line"/>
      <point x="350" y="247" type="line"/>
    </contour>
  </outline>
</glyph>
<glyph name="ellipsis" format="1">
  <advance width="547"/>
  <unicode hex="2026"/>
  <outline>
    <contour>
      <point x="514" y="49" type="curve" smooth="yes"/>
      <point x="514" y="17"/>
      <point x="490" y="-7"/>
      <point x="458" y="-7" type="curve" smooth="yes"/>
      <point x="426" y="-7"/>
      <point x="403" y="17"/>
      <point x="403" y="49" type="curve" smooth="yes"/>
      <point x="403" y="81"/>
      <point x="426" y="105"/>
      <point x="458" y="105" type="curve" smooth="yes"/>
      <point x="490" y="105"/>
      <point x="514" y="81"/>
    </contour>
    <contour>
      <point x="329" y="49" type="curve" smooth="yes"/>
      <point x="329" y="17"/>
      <point x="305" y="-7"/>
      <point x="273" y="-7" type="curve" smooth="yes"/>
      <point x="241" y="-7"/>
      <point x="218" y="17"/>
      <point x="218" y="49" type="curve" smooth="yes"/>
      <point x="218" y="81"/>
      <point x="241" y="105"/>
      <point x="273" y="105" type="curve" smooth="yes"/>
      <point x="305" y="105"/>
      <point x="329" y="81"/>
    </contour>
    <contour>
      <point x="144" y="49" type="curve" smooth="yes"/>
      <point x="144" y="17"/>
      <point x="121" y="-7"/>
      <point x="88" y="-7" type="curve" smooth="yes"/>
      <point x="56" y="-7"/>
      <point x="33" y="17"/>
      <point x="33" y="49" type="curve" smooth="yes"/>
      <point x="33" y="81"/>
      <point x="56" y="105"/>
      <point x="88" y="105" type="curve" smooth="yes"/>
      <point x="121" y="105"/>
      <point x="144" y="81"/>
    </contour>
  </outline>
</glyph>
<glyph name="perthousand" format="1">
  <advance width="966"/>
  <unicode hex="2030"/>
  <outline>
    <contour>
      <point x="306" y="536" type="curve" smooth="yes"/>
      <point x="306" y="413"/>
      <point x="244" y="345"/>
      <point x="162" y="345" type="curve" smooth="yes"/>
      <point x="81" y="345"/>
      <point x="22" y="411"/>
      <point x="22" y="536" type="curve" smooth="yes"/>
      <point x="22" y="661"/>
      <point x="82" y="727"/>
      <point x="164" y="727" type="curve" smooth="yes"/>
      <point x="245" y="727"/>
      <point x="306" y="662"/>
    </contour>
    <contour>
      <point x="229" y="535" type="curve" smooth="yes"/>
      <point x="229" y="612"/>
      <point x="209" y="659"/>
      <point x="163" y="659" type="curve" smooth="yes"/>
      <point x="118" y="659"/>
      <point x="99" y="613"/>
      <point x="99" y="537" type="curve" smooth="yes"/>
      <point x="99" y="461"/>
      <point x="118" y="412"/>
      <point x="163" y="412" type="curve" smooth="yes"/>
      <point x="208" y="412"/>
      <point x="229" y="459"/>
    </contour>
    <contour>
      <point x="543" y="720" type="line"/>
      <point x="347" y="349" type="line"/>
      <point x="191" y="1" type="line"/>
      <point x="109" y="1" type="line"/>
      <point x="305" y="372" type="line"/>
      <point x="462" y="720" type="line"/>
    </contour>
    <contour>
      <point x="630" y="185" type="curve" smooth="yes"/>
      <point x="630" y="60"/>
      <point x="568" y="-7"/>
      <point x="487" y="-7" type="curve" smooth="yes"/>
      <point x="405" y="-7"/>
      <point x="346" y="59"/>
      <point x="346" y="185" type="curve" smooth="yes"/>
      <point x="346" y="308"/>
      <point x="407" y="375"/>
      <point x="488" y="375" type="curve" smooth="yes"/>
      <point x="570" y="375"/>
      <point x="630" y="310"/>
    </contour>
    <contour>
      <point x="553" y="184" type="curve" smooth="yes"/>
      <point x="553" y="261"/>
      <point x="533" y="308"/>
      <point x="487" y="308" type="curve" smooth="yes"/>
      <point x="443" y="308"/>
      <point x="423" y="262"/>
      <point x="423" y="186" type="curve" smooth="yes"/>
      <point x="423" y="110"/>
      <point x="442" y="61"/>
      <point x="487" y="61" type="curve" smooth="yes"/>
      <point x="532" y="61"/>
      <point x="553" y="108"/>
    </contour>
    <contour>
      <point x="944" y="185" type="curve" smooth="yes"/>
      <point x="944" y="60"/>
      <point x="882" y="-7"/>
      <point x="801" y="-7" type="curve" smooth="yes"/>
      <point x="720" y="-7"/>
      <point x="660" y="59"/>
      <point x="660" y="185" type="curve" smooth="yes"/>
      <point x="660" y="308"/>
      <point x="721" y="375"/>
      <point x="803" y="375" type="curve" smooth="yes"/>
      <point x="884" y="375"/>
      <point x="944" y="310"/>
    </contour>
    <contour>
      <point x="867" y="184" type="curve" smooth="yes"/>
      <point x="867" y="261"/>
      <point x="847" y="308"/>
      <point x="802" y="308" type="curve" smooth="yes"/>
      <point x="757" y="308"/>
      <point x="737" y="262"/>
      <point x="737" y="186" type="curve" smooth="yes"/>
      <point x="737" y="110"/>
      <point x="756" y="61"/>
      <point x="802" y="61" type="curve" smooth="yes"/>
      <point x="847" y="61"/>
      <point x="867" y="108"/>
    </contour>
  </outline>
</glyph>
<glyph name="Euro" format="1">
  <advance width="463"/>
  <unicode hex="20AC"/>
  <outline>
    <contour>
      <point x="442" y="173" type="line"/>
      <point x="415" y="65"/>
      <point x="365" y="-12"/>
      <point x="243" y="-12" type="curve" smooth="yes"/>
      <point x="114" y="-12"/>
      <point x="34" y="101"/>
      <point x="34" y="323" type="curve" smooth="yes"/>
      <point x="34" y="396" type="line" smooth="yes"/>
      <point x="34" y="618"/>
      <point x="115" y="732"/>
      <point x="244" y="732" type="curve" smooth="yes"/>
      <point x="360" y="732"/>
      <point x="411" y="661"/>
      <point x="438" y="557" type="curve"/>
      <point x="362" y="519" type="line"/>
      <point x="340" y="604"/>
      <point x="309" y="655"/>
      <point x="247" y="655" type="curve" smooth="yes"/>
      <point x="176" y="655"/>
      <point x="138" y="574"/>
      <point x="132" y="454" type="curve"/>
      <point x="312" y="454" type="line"/>
      <point x="312" y="398" type="line"/>
      <point x="131" y="398" type="line"/>
      <point x="131" y="312" type="line"/>
      <point x="312" y="312" type="line"/>
      <point x="312" y="256" type="line"/>
      <point x="133" y="256" type="line"/>
      <point x="140" y="142"/>
      <point x="177" y="65"/>
      <point x="252" y="65" type="curve" smooth="yes"/>
      <point x="311" y="65"/>
      <point x="343" y="116"/>
      <point x="366" y="210" type="curve"/>
    </contour>
  </outline>
</glyph>
<glyph name="radical" format="1">
  <advance width="476"/>
  <unicode hex="221A"/>
  <outline>
    <contour>
      <point x="457" y="720" type="line"/>
      <point x="263" y="-3" type="line"/>
      <point x="145" y="-3" type="line"/>
      <point x="23" y="340" type="line"/>
      <point x="123" y="340" type="line"/>
      <point x="202" y="93" type="line"/>
      <point x="353" y="720" type="line"/>
    </contour>
  </outline>
</glyph>
<glyph name="I.salt" format="1">
  <advance width="221"/>
  <outline>
    <contour>
      <point x="162" y="0" type="line"/>
      <point x="59" y="0" type="line"/>
      <point x="59" y="720" type="line"/>
      <point x="162" y="720" type="line"/>
    </contour>
  </outline>
</glyph>
